<?xml version="1.0" standalone="no"?>
<!DOCTYPE svg PUBLIC "-//W3C//DTD SVG 20010904//EN"
 "http://www.w3.org/TR/2001/REC-SVG-20010904/DTD/svg10.dtd">
<svg version="1.0" xmlns="http://www.w3.org/2000/svg"
 width="1499.000000pt" height="1499.000000pt" viewBox="0 0 1499.000000 1499.000000"
 preserveAspectRatio="xMidYMid meet">
<metadata>
Created by potrace 1.14, written by Peter Selinger 2001-2017
</metadata>
<g transform="translate(0.000000,1499.000000) scale(0.100000,-0.100000)"
fill="#000000" stroke="none">
<path d="M7391 12146 c-7 -9 -40 -17 -79 -21 -221 -21 -335 -48 -386 -93 -32
-28 -56 -93 -56 -152 0 -53 -2 -58 -47 -101 -27 -26 -82 -71 -123 -101 -41
-31 -135 -103 -209 -161 -81 -64 -146 -108 -166 -111 -17 -4 -55 -2 -84 4 -77
14 -125 12 -159 -7 -27 -16 -38 -16 -138 -3 -213 29 -301 14 -369 -61 -68 -76
-79 -139 -60 -344 9 -85 22 -188 30 -228 41 -194 123 -361 197 -401 28 -15 33
-23 30 -46 -3 -20 3 -32 22 -48 l27 -20 -18 -44 c-40 -96 -6 -377 65 -547 17
-39 26 -68 21 -65 -5 3 -9 -2 -9 -11 0 -9 6 -15 13 -12 7 2 25 -23 44 -65 17
-37 48 -94 67 -125 20 -32 58 -119 87 -193 126 -335 236 -515 474 -776 145
-159 194 -228 234 -325 57 -137 93 -177 185 -204 l40 -12 -75 -36 c-47 -22
-191 -122 -384 -267 -171 -127 -382 -283 -470 -347 -192 -141 -268 -215 -319
-313 -34 -65 -47 -114 -131 -513 -120 -567 -139 -651 -164 -714 -28 -72 -197
-443 -275 -606 -90 -186 -67 -175 -393 -187 -462 -18 -577 -35 -733 -112 -111
-54 -192 -134 -244 -239 -45 -92 -54 -171 -22 -195 33 -24 42 -16 53 50 36
213 170 322 453 372 72 12 180 18 443 21 l347 5 0 -57 0 -57 -37 6 c-141 23
-371 14 -634 -24 -140 -21 -178 -33 -228 -76 -106 -89 -122 -214 -38 -303 83
-88 246 -158 417 -179 254 -32 722 -62 985 -62 l170 0 -32 -21 c-39 -25 -44
-66 -14 -115 l19 -32 -41 -30 c-83 -59 -128 -76 -200 -77 -55 -1 -72 -5 -90
-23 l-21 -22 26 -26 c24 -25 34 -27 189 -38 91 -7 179 -19 198 -27 l33 -14
-38 -25 c-22 -14 -49 -45 -63 -71 -22 -42 -23 -49 -11 -78 7 -17 21 -36 30
-41 10 -5 86 -14 169 -18 83 -5 154 -12 157 -15 17 -17 -12 -37 -88 -60 -223
-70 -365 -87 -723 -87 -460 0 -703 41 -1280 216 -137 42 -256 82 -264 89 -22
21 -16 52 48 224 62 169 82 208 107 218 8 3 155 -43 325 -102 266 -92 312
-106 324 -94 8 8 11 19 7 25 -11 18 -197 84 -278 99 -187 36 -329 136 -385
271 -34 80 -52 71 -60 -31 -12 -167 -80 -248 -264 -314 -366 -131 -433 -254
-300 -548 75 -164 137 -202 420 -259 172 -34 187 -36 335 -31 305 9 3454 -11
3484 -23 15 -5 52 -35 81 -64 l53 -55 6 39 c3 20 14 48 24 60 l18 23 440 -2
c615 -2 1519 -19 1644 -32 58 -5 166 -20 240 -32 199 -32 487 -31 619 2 115
29 573 181 627 209 53 27 101 76 129 133 26 50 116 369 159 559 70 312 82 442
96 1040 12 479 19 609 56 1000 43 455 48 491 79 517 14 13 37 23 51 23 49 0
49 29 5 251 -22 112 -63 363 -91 558 -85 595 -124 737 -258 942 -139 213 -344
385 -624 524 -70 34 -178 79 -240 98 -126 40 -479 137 -497 137 -7 0 -33 -14
-58 -31 l-45 -31 -81 22 c-123 35 -200 67 -447 189 -257 126 -290 152 -358
280 -56 105 -82 183 -82 245 0 57 13 89 24 61 7 -20 41 -12 74 18 26 24 29 71
7 123 -13 33 -17 35 -45 29 l-30 -7 0 55 c0 42 -4 56 -16 61 -9 4 -18 5 -19 4
-13 -16 -35 -72 -35 -90 l0 -23 -25 26 c-14 13 -40 59 -58 101 -19 42 -40 86
-48 98 -21 30 -65 39 -129 24 -148 -33 -351 -67 -358 -60 -7 7 114 57 176 73
44 11 68 23 79 39 28 43 15 57 -63 70 -82 14 -125 33 -146 66 -27 42 -28 57
-8 68 16 8 51 -5 192 -76 95 -47 180 -92 188 -99 8 -7 74 -40 147 -74 167 -78
205 -81 256 -21 110 129 130 260 54 369 -17 25 -32 49 -32 53 0 15 -61 87 -71
84 -19 -7 -15 68 15 339 34 297 36 278 -49 427 -136 238 -244 379 -305 394
-39 10 -115 -2 -133 -19 -13 -14 -13 -19 -2 -34 8 -10 2 -7 -12 7 l-25 25 23
35 c30 46 38 83 24 109 -13 25 -164 103 -241 125 -30 8 -91 20 -135 27 l-82
12 20 32 19 33 -23 6 c-34 9 -35 8 -42 -19 -4 -14 -11 -25 -17 -25 -6 0 -7 -5
-3 -12 5 -8 -2 -9 -26 -5 -18 4 -49 7 -70 7 -36 0 -38 2 -44 40 -6 36 -10 40
-48 50 -69 19 -159 -10 -225 -72 -45 -44 -81 -33 -161 48 l-63 64 -62 1 c-55
2 -57 3 -22 8 36 6 38 7 15 14 -36 10 -46 9 -59 -7z m-91 -75 c20 -6 13 -9
-35 -14 -33 -4 -81 -18 -107 -30 l-48 -22 25 -42 c24 -40 29 -42 68 -41 40 1
59 -5 119 -38 25 -13 34 -13 85 0 65 17 153 27 153 17 0 -3 -17 -34 -39 -69
-21 -34 -46 -79 -55 -100 -16 -36 -22 -39 -90 -56 -68 -17 -74 -17 -104 -2
-32 17 -33 17 -110 -30 l-78 -47 14 -63 c9 -40 11 -73 5 -89 -7 -22 -17 -3
-80 145 -40 93 -76 188 -79 210 -22 138 123 280 286 278 25 0 56 -3 70 -7z
m593 -68 c-7 -2 -21 -2 -30 0 -10 3 -4 5 12 5 17 0 24 -2 18 -5z m-100 -10
c-7 -2 -21 -2 -30 0 -10 3 -4 5 12 5 17 0 24 -2 18 -5z m-225 -54 c-3 -8 -7
-3 -11 10 -4 17 -3 21 5 13 5 -5 8 -16 6 -23z m350 -23 c30 -26 36 -38 55
-103 l16 -52 -59 -30 c-59 -31 -103 -38 -129 -22 -7 5 -11 13 -7 19 8 13 -17
22 -60 22 -36 0 -45 18 -21 42 8 7 19 23 26 35 10 20 9 23 -11 28 -67 15 -79
11 -92 -25 -6 -19 -24 -53 -39 -75 -42 -61 -37 -81 38 -151 75 -71 125 -131
125 -150 0 -10 -13 -14 -39 -14 -61 0 -91 -16 -151 -81 -59 -62 -95 -75 -134
-46 -23 17 -12 81 17 102 19 13 19 15 3 15 -22 0 -18 22 26 158 45 136 127
266 190 298 44 23 190 62 208 56 8 -3 26 -14 38 -26z m490 -77 c187 -62 198
-73 110 -114 -29 -13 -55 -21 -58 -16 -3 4 -29 20 -57 36 -29 15 -73 49 -97
74 -24 25 -54 54 -67 64 -28 22 -36 24 169 -44z m-101 -116 c2 -6 -34 -38 -79
-73 -46 -34 -82 -66 -81 -71 2 -5 -4 -6 -12 -3 -8 4 -15 2 -15 -4 0 -8 -95
-53 -122 -58 -5 -1 -11 -3 -15 -4 -13 -4 -27 -7 -41 -8 -7 -1 -11 -6 -8 -11 3
-5 -1 -11 -9 -15 -8 -3 -15 -1 -15 4 0 6 -7 10 -16 10 -12 0 -8 10 16 40 33
42 34 70 2 70 -10 0 -26 6 -36 13 -23 17 -14 52 16 68 19 10 119 38 140 39 4
0 -2 -21 -12 -46 -25 -58 -26 -57 10 -39 52 27 254 105 264 102 6 -2 11 -8 13
-14z m-1460 -75 c36 -15 73 -48 73 -65 0 -7 -12 -48 -27 -90 -34 -100 -44
-285 -20 -376 8 -31 11 -55 6 -52 -20 13 -105 325 -124 456 -5 34 -2 55 10 80
33 64 37 66 82 47z m1613 -63 c0 -14 7 -37 16 -50 26 -39 12 -68 -46 -95 -27
-13 -58 -32 -67 -42 -9 -10 -33 -21 -53 -24 -32 -5 -44 -16 -78 -64 -56 -78
-83 -89 -173 -65 -88 22 -162 16 -296 -26 -167 -53 -233 -71 -245 -67 -15 5
143 104 161 100 7 -2 10 1 6 7 -3 7 0 8 9 5 8 -3 83 14 168 37 151 42 154 44
253 117 134 99 138 103 123 114 -8 6 -4 7 12 2 14 -3 21 -3 17 2 -7 7 154 70
186 73 4 1 7 -10 7 -24z m333 5 c41 -19 63 -42 121 -125 l28 -40 -29 34 c-15
19 -35 44 -45 55 -18 23 -14 24 -126 -25 l-52 -23 -23 23 -22 23 43 37 c23 20
42 42 42 49 0 17 14 15 63 -8z m-1406 -92 c-3 -8 -6 -5 -6 6 -1 11 2 17 5 13
3 -3 4 -12 1 -19z m-781 -67 c3 -14 8 -35 11 -46 3 -16 2 -17 -6 -5 -9 13 -11
13 -11 -2 0 -9 -39 -69 -87 -133 -98 -131 -95 -131 -109 -3 -6 52 -4 62 20 97
15 21 46 54 68 72 79 64 103 69 114 20z m771 7 c-3 -8 -6 -5 -6 6 -1 11 2 17
5 13 3 -3 4 -12 1 -19z m-670 -50 c-2 -13 -4 -3 -4 22 0 25 2 35 4 23 2 -13 2
-33 0 -45z m318 -23 l24 -54 -22 8 c-24 9 -46 58 -46 106 0 35 6 27 44 -60z
m935 50 c-7 -8 -20 -15 -29 -15 -11 1 -8 5 9 15 32 18 35 18 20 0z m-593 -72
c-3 -10 -5 -2 -5 17 0 19 2 27 5 18 2 -10 2 -26 0 -35z m1335 15 l21 -21 -20
-17 c-11 -9 -57 -24 -101 -33 -69 -15 -91 -25 -149 -70 -63 -49 -68 -56 -71
-95 -3 -41 -7 -45 -95 -111 -84 -62 -98 -69 -167 -81 -41 -7 -83 -16 -94 -19
-10 -4 -54 3 -97 15 -148 43 -342 50 -537 18 -29 -4 -42 -3 -40 4 2 6 -12 22
-30 36 l-34 24 99 66 c63 42 99 62 102 54 3 -10 48 -82 67 -106 2 -3 73 7 484
68 84 13 164 31 209 49 l74 29 -36 23 c-20 13 -37 27 -37 30 0 6 182 69 202
69 7 0 24 6 38 13 14 8 52 28 84 45 69 38 98 40 128 10z m-2463 -7 c10 -10 26
-43 35 -73 8 -30 33 -92 55 -139 41 -86 39 -109 -5 -68 -35 33 -40 17 -6 -22
89 -105 80 -124 -31 -67 -34 18 -65 34 -69 36 -3 2 -17 -13 -30 -32 l-24 -35
-42 85 c-39 78 -41 86 -28 107 8 12 18 41 22 63 5 34 2 47 -17 73 -13 17 -29
29 -36 27 -30 -12 -10 6 40 34 60 34 109 38 136 11z m-338 -1 c10 -6 19 -21
19 -33 0 -12 11 -45 24 -74 l24 -51 -58 -94 c-57 -90 -110 -233 -110 -293 0
-22 17 -35 44 -35 8 0 53 63 102 140 49 77 91 140 94 140 3 0 24 -36 47 -81
l41 -80 -38 -57 -38 -57 21 -17 c20 -15 23 -15 39 -1 40 36 15 4 -33 -42 l-51
-50 6 46 7 47 -62 -15 c-67 -15 -109 -34 -127 -55 -15 -19 -39 -94 -47 -148
-14 -103 -13 -101 -43 -86 -76 40 -96 88 -136 333 -56 342 -61 396 -42 447 33
86 104 124 234 125 35 1 72 -4 83 -9z m169 -128 c-1 -43 -17 -42 -34 3 -24 60
-13 92 14 47 11 -18 20 -40 20 -50z m2965 43 c22 -40 17 -50 -18 -34 -23 10
-38 6 -119 -29 -51 -23 -110 -48 -130 -57 l-38 -15 0 50 c0 41 5 56 26 77 25
25 28 25 117 19 75 -6 96 -4 112 8 28 21 29 21 50 -19z m22 -77 c-3 -8 -6 -5
-6 6 -1 11 2 17 5 13 3 -3 4 -12 1 -19z m-3057 -48 c11 -22 18 -40 15 -40 -2
0 -14 18 -25 40 -11 22 -18 40 -15 40 2 0 14 -18 25 -40z m1308 -12 c-8 -12
-23 -27 -34 -35 -18 -11 -22 -9 -38 19 -11 17 -14 28 -9 25 5 -3 23 -2 39 3
51 15 58 13 42 -12z m1608 -3 c4 -9 -6 -33 -21 -55 -15 -22 -24 -44 -19 -51 4
-7 3 -10 -4 -5 -5 3 -12 2 -14 -3 -1 -4 -27 -20 -55 -35 l-53 -26 0 49 c0 50
0 50 45 70 31 14 46 27 51 45 5 21 12 26 35 26 17 0 32 -6 35 -15z m-1776 -54
c0 -24 -5 -31 -30 -36 -26 -6 -29 -10 -24 -35 4 -20 1 -33 -13 -46 -31 -29
-85 -74 -89 -74 -4 0 -64 116 -64 124 0 14 81 61 133 76 84 25 87 25 87 -9z
m1418 -131 c4 -58 -4 -86 -25 -88 -62 -7 -87 -2 -129 26 l-46 29 53 33 c29 18
67 35 84 37 16 3 32 7 34 9 13 13 26 -8 29 -46z m509 35 c8 -24 -8 -305 -18
-305 -5 0 -9 18 -9 40 0 35 -18 140 -25 148 -2 2 -17 -6 -33 -18 -37 -28 -64
-23 -134 24 l-49 34 108 46 c115 48 150 55 160 31z m-2199 -106 c-7 -5 -31 -8
-53 -7 l-40 1 35 4 c35 4 35 5 32 46 l-3 42 22 -39 c17 -31 18 -40 7 -47z
m1871 77 c-2 -2 -15 -9 -29 -15 -24 -11 -24 -11 -6 3 16 13 49 24 35 12z
m-1129 -36 l59 0 -24 -26 c-25 -27 -55 -103 -55 -140 0 -46 -30 -48 -166 -8
-69 20 -120 40 -114 44 6 4 14 32 17 63 5 54 7 57 37 62 39 6 157 12 174 8 8
-2 40 -3 72 -3z m-1220 -65 c10 -13 9 -15 -8 -15 -22 0 -36 13 -25 24 10 10
20 7 33 -9z m144 -62 c59 -3 102 -9 95 -14 -20 -12 26 -93 64 -112 87 -43 156
-69 317 -120 226 -71 212 -69 224 -27 18 59 24 63 56 40 37 -26 50 -25 120 10
96 49 127 38 152 -54 l13 -48 -33 -29 c-21 -19 -28 -31 -20 -34 7 -2 56 -16
108 -30 52 -14 100 -27 106 -30 13 -4 59 177 51 199 -3 7 -34 25 -69 39 -101
42 -54 31 108 -24 82 -28 156 -53 164 -56 8 -2 27 -21 43 -40 33 -44 36 -98 6
-162 -22 -51 -18 -57 43 -67 49 -8 61 -24 48 -58 -13 -36 -47 -34 -160 9 -50
19 -98 35 -106 35 -27 0 -14 -15 41 -48 79 -48 72 -72 -21 -72 -36 0 -56 8
-102 40 -55 38 -61 40 -157 45 -113 7 -405 55 -405 67 0 4 4 8 9 8 6 0 49 19
97 42 l87 42 -304 102 c-268 90 -325 113 -479 193 -96 50 -183 94 -192 97 -10
3 -18 14 -18 25 0 30 -21 23 -71 -27 -54 -54 -72 -51 -67 10 4 58 29 63 252
49z m1874 -13 c-15 -24 -15 -24 -59 -8 l-34 12 30 7 c17 4 40 7 53 8 20 1 21
-1 10 -19z m-1602 -10 c13 0 24 -4 24 -8 0 -15 -77 -12 -112 4 l-33 15 49 -5
c27 -4 59 -6 72 -6z m1473 -46 l71 -26 -20 -28 c-56 -79 -125 -107 -235 -95
-38 5 -82 9 -97 9 -16 1 -28 5 -28 10 0 4 -7 6 -15 2 -24 -9 -18 39 8 70 17
20 49 34 118 55 52 15 102 28 111 28 9 1 49 -11 87 -25z m601 10 c0 -4 -16
-26 -35 -50 -19 -23 -35 -47 -35 -52 0 -6 -36 2 -80 16 -43 14 -77 28 -75 30
6 6 196 61 213 61 6 1 12 -2 12 -5z m-1573 -40 c-3 -3 -12 -4 -19 -1 -8 3 -5
6 6 6 11 1 17 -2 13 -5z m-1170 -56 c-5 -40 -40 -88 -63 -88 -7 0 -18 8 -23
18 -11 20 1 44 47 94 32 35 46 26 39 -24z m403 -58 c193 -104 186 -99 163
-115 -10 -8 -26 -15 -36 -15 -15 0 -212 105 -324 172 -32 19 -32 20 -17 44
l16 24 32 -19 c17 -10 92 -51 166 -91z m957 74 c-3 -3 -12 -4 -19 -1 -8 3 -5
6 6 6 11 1 17 -2 13 -5z m1186 -73 c78 -27 123 -47 115 -52 -22 -12 -341 -87
-383 -90 -22 -1 -58 3 -79 11 l-40 13 60 22 59 22 -65 33 c-36 18 -60 35 -53
37 67 23 222 58 238 54 11 -3 78 -26 148 -50z m277 41 c0 -17 -39 -40 -59 -35
-26 7 -27 19 -3 32 20 12 62 14 62 3z m82 -34 c-8 -8 -9 -4 -5 13 4 13 8 18
11 10 2 -7 -1 -18 -6 -23z m-27 -18 c-3 -5 -14 -10 -23 -9 -14 0 -13 2 3 9 27
11 27 11 20 0z m-2988 -72 c-3 -7 -5 -2 -5 12 0 14 2 19 5 13 2 -7 2 -19 0
-25z m3128 -8 c10 -11 16 -20 13 -20 -3 0 -13 9 -23 20 -10 11 -16 20 -13 20
3 0 13 -9 23 -20z m35 -146 c7 -20 9 -51 5 -71 -8 -42 -35 -103 -47 -103 -12
0 -48 62 -48 81 0 9 16 40 36 69 30 44 33 54 22 68 -12 15 -11 16 4 4 9 -8 22
-29 28 -48z m-303 27 c41 -19 65 -46 78 -88 6 -22 4 -23 -50 -23 -50 0 -63 5
-115 42 -33 23 -60 46 -60 50 0 11 59 37 85 37 11 0 39 -8 62 -18z m-265 -12
c19 -10 73 -77 67 -83 -2 -3 -44 17 -93 44 -64 35 -83 49 -70 53 22 6 72 -2
96 -14z m-2602 -76 c-77 -235 -99 -318 -105 -388 -4 -44 -11 -86 -15 -94 -13
-24 -34 119 -34 234 0 202 34 267 141 274 20 1 21 -2 13 -26z m260 -21 c49
-10 86 -23 88 -30 1 -7 14 -31 28 -52 l27 -40 92 0 c51 0 112 -3 137 -6 44 -6
45 -6 51 25 8 38 1 38 203 7 233 -36 417 -74 425 -87 4 -7 16 -9 28 -6 12 3
19 1 16 -3 -3 -5 12 -9 32 -8 42 0 500 -109 508 -122 7 -11 -196 -49 -305 -56
-52 -3 -155 -15 -228 -25 -73 -10 -138 -19 -143 -19 -16 0 1 -62 20 -77 9 -7
44 -27 77 -44 l61 -30 199 16 c110 10 207 21 216 26 10 5 42 40 72 77 29 37
66 78 80 92 l27 24 72 -18 c201 -51 498 -155 697 -243 50 -22 53 -26 37 -38
-14 -10 -25 -10 -47 -2 -25 9 -46 4 -160 -39 -102 -37 -139 -56 -161 -81 -23
-27 -44 -36 -126 -57 -328 -83 -592 -121 -654 -96 -24 10 -38 10 -72 0 -23 -8
-48 -18 -55 -23 -22 -17 -413 -2 -589 23 -156 22 -161 23 -150 43 9 14 9 21 1
24 -24 8 -49 32 -41 39 4 4 85 11 179 16 121 6 177 12 186 22 7 7 17 37 21 67
4 30 10 59 14 65 4 7 -9 10 -41 8 -26 -2 -109 -5 -185 -7 -131 -4 -138 -3
-152 16 -8 12 -15 42 -15 67 0 81 3 81 -221 -17 -184 -80 -204 -92 -205 -114
-1 -50 -5 -59 -35 -94 -32 -36 -61 -43 -117 -27 -35 11 -147 98 -184 144 -18
23 -28 39 -22 35 12 -7 27 37 44 130 5 29 17 64 26 78 16 25 16 26 -4 31 -11
3 -22 14 -25 25 -8 28 25 32 150 20 59 -6 205 -18 323 -26 118 -8 226 -18 240
-21 14 -3 97 -16 186 -28 l160 -22 61 24 c56 21 66 30 127 113 36 49 66 91 66
93 0 2 -214 4 -476 4 -261 1 -484 4 -495 7 -11 4 -51 1 -89 -6 -61 -11 -72
-10 -94 5 -36 23 -49 75 -26 101 23 26 52 94 44 106 -7 11 -6 11 96 -9z m327
12 c-3 -3 -12 -4 -19 -1 -8 3 -5 6 6 6 11 1 17 -2 13 -5z m534 -29 c26 -9 55
-26 65 -37 19 -21 19 -21 -21 -15 -22 3 -125 15 -230 27 -104 12 -194 26 -199
31 -14 12 18 12 63 -2 29 -9 47 -8 86 5 60 19 168 15 236 -9z m-644 -21 c-3
-3 -12 -4 -19 -1 -8 3 -5 6 6 6 11 1 17 -2 13 -5z m2618 -114 c-3 -5 -14 -10
-23 -9 -14 0 -13 2 3 9 27 11 27 11 20 0z m-780 -191 c27 -17 43 -29 34 -26
-8 3 -57 18 -108 33 -64 19 -88 30 -75 34 28 10 94 -8 149 -41z m-1486 -354
c22 -11 20 -13 -38 -29 -34 -9 -66 -14 -71 -11 -18 11 -10 34 18 49 27 15 48
13 91 -9z m221 -1 c8 -9 -32 -34 -54 -34 -12 1 -34 7 -51 14 l-30 14 25 11
c23 10 98 7 110 -5z m-707 -121 c-7 -2 -21 -2 -30 0 -10 3 -4 5 12 5 17 0 24
-2 18 -5z m74 -9 c-3 -3 -12 -4 -19 -1 -8 3 -5 6 6 6 11 1 17 -2 13 -5z m60
-10 c-3 -3 -12 -4 -19 -1 -8 3 -5 6 6 6 11 1 17 -2 13 -5z m60 -10 c-3 -3 -12
-4 -19 -1 -8 3 -5 6 6 6 11 1 17 -2 13 -5z m60 -10 c-3 -3 -12 -4 -19 -1 -8 3
-5 6 6 6 11 1 17 -2 13 -5z m60 -10 c-3 -3 -12 -4 -19 -1 -8 3 -5 6 6 6 11 1
17 -2 13 -5z m60 -10 c-3 -3 -12 -4 -19 -1 -8 3 -5 6 6 6 11 1 17 -2 13 -5z
m901 -51 c-10 -2 -26 -2 -35 0 -10 3 -2 5 17 5 19 0 27 -2 18 -5z m-463 -580
c-35 -92 -45 -102 -61 -64 -15 35 -67 71 -103 71 l-25 0 29 30 c27 28 33 30
107 30 l78 0 -25 -67z m3205 -27 c226 -66 329 -106 460 -177 270 -146 451
-308 556 -495 71 -127 131 -337 208 -729 66 -337 73 -380 101 -599 28 -223 31
-209 -47 -226 -98 -20 -1070 -138 -1413 -170 -121 -12 -237 -25 -257 -31 -21
-5 -49 -7 -63 -3 -44 11 -55 39 -55 144 0 75 -5 104 -21 140 l-21 45 -15 -35
c-8 -19 -19 -87 -23 -151 -5 -65 -13 -127 -20 -138 -8 -16 -7 -29 4 -54 32
-67 87 -326 107 -497 36 -320 120 -1204 120 -1276 1 -91 -22 -139 -93 -194
-65 -52 -82 -61 -204 -103 -357 -125 -789 -150 -1201 -72 -160 30 -507 115
-542 132 -41 21 -75 75 -91 146 -8 40 -50 411 -50 447 0 17 26 11 46 -11 41
-46 186 -151 266 -193 114 -60 181 -80 411 -121 109 -20 280 -51 379 -70 194
-37 225 -36 213 8 -12 40 -41 53 -171 76 -428 76 -583 112 -720 166 -123 48
-209 100 -273 164 -61 61 -314 419 -453 639 -152 242 -162 319 -79 567 27 83
78 253 111 379 34 127 77 283 96 349 42 146 44 216 10 429 -14 84 -27 175 -31
201 -7 54 -29 72 -51 42 -10 -14 -14 -57 -14 -162 0 -79 -4 -143 -9 -143 -8 0
-474 528 -511 580 l-20 28 30 37 c17 21 33 56 36 77 6 33 13 42 46 59 35 18
42 19 56 6 10 -8 55 -35 102 -61 47 -26 114 -67 148 -91 43 -30 95 -54 160
-75 75 -23 114 -42 172 -85 96 -71 164 -97 255 -98 128 -2 175 27 286 185 39
54 74 96 78 93 5 -2 11 -111 14 -242 8 -339 21 -394 114 -494 57 -61 114 -84
183 -75 164 22 410 192 511 354 23 37 63 92 88 122 26 30 112 141 191 245 252
332 339 436 520 615 142 140 180 184 195 222 24 65 14 124 -31 183 -19 25 -34
48 -34 51 0 9 21 4 240 -60z m-3456 -151 l16 -25 -50 0 -49 0 6 33 c3 17 15
42 27 55 l21 24 6 -31 c4 -17 14 -42 23 -56z m636 -1756 c0 -32 -71 -308 -160
-623 -45 -161 -84 -319 -87 -355 -11 -135 56 -294 252 -594 64 -98 132 -208
151 -245 33 -65 34 -71 34 -182 0 -64 9 -180 21 -263 12 -81 19 -151 16 -154
-14 -13 -43 15 -214 204 -99 109 -226 244 -282 300 -116 117 -134 125 -271
127 l-85 1 -19 -35 c-14 -26 -17 -46 -13 -70 9 -47 166 -334 211 -386 l36 -42
-27 -7 c-21 -5 -32 -2 -45 15 -10 12 -18 28 -18 35 0 14 -203 167 -275 207
-27 15 -86 39 -130 53 -137 42 -183 97 -251 298 -38 112 -148 302 -230 396
-28 33 -54 71 -58 86 -8 33 7 83 47 149 16 28 61 118 99 201 132 285 216 394
374 486 105 62 396 199 619 292 99 42 205 87 235 101 68 31 70 31 70 5z m-838
-2134 c183 -88 220 -114 251 -170 15 -26 27 -50 27 -54 0 -4 -29 -21 -65 -39
-71 -35 -159 -52 -477 -93 -136 -17 -171 -19 -183 -9 -9 8 -12 17 -7 24 18 22
21 75 8 159 -7 47 -10 90 -7 95 12 18 88 22 144 7 64 -17 165 -65 215 -103 17
-13 42 -42 53 -62 20 -35 42 -49 76 -50 13 0 7 91 -8 121 -5 9 -50 45 -101 79
-137 93 -130 85 -106 126 11 19 26 34 34 34 7 0 73 -29 146 -65z m-1624 -81
c31 -21 43 -48 49 -107 3 -29 16 -94 29 -145 37 -142 32 -161 -49 -183 -34 -9
-86 -5 -299 20 -340 42 -415 55 -469 80 -92 43 -149 110 -149 175 0 16 17 40
55 74 68 62 92 68 335 82 404 23 470 24 498 4z m955 -278 c16 -71 16 -80 2
-95 -8 -10 -15 -24 -15 -31 0 -35 -11 3 -15 56 -3 32 -8 81 -11 107 -8 79 18
53 39 -37z m-9 -172 c3 -8 2 -12 -4 -9 -6 3 -10 10 -10 16 0 14 7 11 14 -7z
m-77 -120 c-3 -3 -12 -4 -19 -1 -8 3 -5 6 6 6 11 1 17 -2 13 -5z m-2297 -286
c-16 -40 -42 -98 -59 -128 -17 -30 -31 -65 -31 -76 0 -60 73 -98 330 -169 85
-24 217 -61 292 -84 381 -112 822 -159 1318 -140 878 32 948 39 1375 131 l189
40 159 -12 c130 -11 161 -10 167 0 10 16 65 -89 75 -143 6 -31 3 -45 -20 -79
l-27 -41 -837 6 c-1289 9 -2477 26 -2679 38 -221 12 -283 27 -463 107 l-134
60 -38 97 c-21 53 -41 118 -44 144 -10 82 27 155 102 201 46 28 293 119 327
119 l26 1 -28 -72z m4407 -177 c170 -68 1107 -449 1201 -488 36 -15 59 -30 54
-35 -11 -11 -788 -10 -1102 2 -135 5 -269 10 -297 10 -40 0 -58 5 -74 21 -20
20 -21 28 -14 133 17 266 33 390 51 403 10 7 21 13 26 13 4 0 74 -27 155 -59z
m-269 -114 c2 -182 -13 -376 -31 -394 -21 -22 -165 -6 -193 22 -26 26 -60 115
-79 207 -24 114 -23 122 42 172 72 57 211 136 239 136 20 0 21 -5 22 -143z
m-1672 -72 c-21 -16 -32 -13 -21 4 3 6 14 11 23 11 15 -1 15 -2 -2 -15z"/>
<path d="M7488 9323 c6 -2 18 -2 25 0 6 3 1 5 -13 5 -14 0 -19 -2 -12 -5z"/>
<path d="M8760 11963 c0 -5 4 -15 10 -23 11 -18 25 -7 17 15 -6 15 -27 21 -27
8z"/>
<path d="M3806 4285 c-3 -8 -1 -15 4 -15 6 0 10 7 10 15 0 8 -2 15 -4 15 -2 0
-6 -7 -10 -15z"/>
<path d="M4911 3786 c-8 -10 -6 -20 11 -41 l22 -28 7 27 c13 48 -13 75 -40 42z"/>
<path d="M5156 3758 c-15 -21 -14 -24 9 -48 l25 -24 22 22 22 22 -24 25 c-29
31 -35 31 -54 3z"/>
</g>
</svg>
