<?xml version="1.0" encoding="UTF-8" standalone="no"?>
<svg
   width="18.939035"
   height="19.10873"
   fill="none"
   version="1.1"
   id="svg2"
   sodipodi:docname="WhatsAppButtonWhiteSmall.svg"
   inkscape:version="1.3.2 (091e20ef0f, 2023-11-25)"
   xmlns:inkscape="http://www.inkscape.org/namespaces/inkscape"
   xmlns:sodipodi="http://sodipodi.sourceforge.net/DTD/sodipodi-0.dtd"
   xmlns="http://www.w3.org/2000/svg"
   xmlns:svg="http://www.w3.org/2000/svg">
  <defs
     id="defs2" />
  <sodipodi:namedview
     id="namedview2"
     pagecolor="#ffffff"
     bordercolor="#000000"
     borderopacity="0.25"
     inkscape:showpageshadow="2"
     inkscape:pageopacity="0.0"
     inkscape:pagecheckerboard="0"
     inkscape:deskcolor="#d1d1d1"
     inkscape:zoom="2.2"
     inkscape:cx="67.727273"
     inkscape:cy="9.3181818"
     inkscape:window-width="1366"
     inkscape:window-height="731"
     inkscape:window-x="0"
     inkscape:window-y="0"
     inkscape:window-maximized="1"
     inkscape:current-layer="svg2" />
  <path
     fill-rule="evenodd"
     clip-rule="evenodd"
     d="m 9.5253842,0 c 2.4185998,0.0116 4.7527998,0.9613 6.4987998,2.6351 1.7881,1.7141 2.8185,4.0126 2.9086,6.4879 0.088,2.4173 -0.7559,4.7918 -2.3566,6.6052 -1.7555,1.9889 -4.1975,3.1312 -6.8349998,3.2069 a 9.4172,9.4172 0 0 1 -0.2709,0.0039 c -1.4211,0 -2.8291,-0.3205 -4.1043,-0.9341 l -4.95680003,1.1025 a 0.0728,0.0728 0 0 1 -0.086,-0.0812 L 1.1604842,14.0142 C 0.44588417,12.7086 0.04698417,11.2374 0.00398417,9.7411 c -0.0724,-2.5285 0.844,-4.9337 2.58050003,-6.7728 C 4.3849842,1.0615 6.8437842,0 9.4784842,0 Z m -0.0527,1.643 c -0.0757,0 -0.1513,0.0011 -0.2274,0.0033 -4.3138,0.1237 -7.7226,3.7339 -7.5988,8.0477 0.0378,1.3172 0.4088,2.6101 1.0731,3.739 l 0.1442,0.2447 -0.6204,3.401 3.3656,-0.7944 0.2541,0.1323 c 1.109,0.577 2.3515,0.8794 3.607,0.8794 0.0746,0 0.1493,-0.0011 0.2239,-0.0033 C 14.007784,17.169 17.416584,13.5589 17.292884,9.2452 17.171284,5.0075 13.685084,1.643 9.4726842,1.643 Z m -3.2738,3.2521 c 0.1583,0.0048 0.3168,0.0094 0.4551,0.0196 0.1692,0.0121 0.3563,0.0258 0.5222,0.4273 0.1968,0.4767 0.6224,1.667 0.6782,1.7877 0.0557,0.1208 0.0911,0.2608 0.007,0.4172 -0.0841,0.1562 -0.1268,0.2541 -0.2496,0.3892 -0.123,0.1353 -0.2593,0.3023 -0.3692,0.4056 -0.1229,0.1149 -0.2506,0.2399 -0.1192,0.4821 0.1313,0.2423 0.5842,1.0353 1.2712,1.6874 0.883,0.838 1.5911,1.1145 1.8723998,1.2457 0.1014,0.0474 0.1858,0.0699 0.2595,0.0699 0.1011,0 0.1821,-0.0424 0.2593,-0.1207 0.148,-0.15 0.5933,-0.6696 0.7808,-0.9087 0.0981,-0.1251 0.1869,-0.1694 0.2834,-0.1694 0.0772,0 0.1593,0.0284 0.255,0.0666 0.2154,0.086 1.3659,0.6972 1.5999,0.8235 0.234,0.1261 0.3905,0.1906 0.4469,0.2914 0.0564,0.1013 0.0416,0.5772 -0.1734,1.1264 -0.2151,0.5493 -1.2016,1.0551 -1.6385,1.0813 -0.1279,0.0076 -0.2537,0.0255 -0.4176,0.0255 -0.3958,0 -1.0132,-0.1043 -2.4153998,-0.7081 -2.3859,-1.0274 -3.8348,-3.5521 -3.9488,-3.7143 -0.1137,-0.1624 -0.9306,-1.3193 -0.8946,-2.4894 0.0359,-1.17 0.6675,-1.7265 0.8927,-1.9577 0.2158,-0.2218 0.4631,-0.2784 0.6228,-0.2784 z"
     fill="#103928"
     id="path1" />
</svg>
